<svg width="277" height="224" viewBox="0 0 277 224" fill="none" xmlns="http://www.w3.org/2000/svg">
<g clip-path="url(#clip0_6_452)">
<path d="M157.802 198.168C155.887 195.477 153.294 193.509 150.034 192.773C147.191 192.13 144.269 192.24 141.379 192.262L104.844 192.544C101.715 192.569 98.7148 195.288 98.8601 198.546C99.0044 201.777 101.49 204.574 104.844 204.548C115.546 204.465 126.248 204.382 136.951 204.299C139.474 204.28 141.998 204.234 144.522 204.243C145.088 204.244 145.653 204.274 146.219 204.281C146.356 204.282 146.455 204.281 146.525 204.278C146.542 204.284 146.557 204.288 146.58 204.295C146.875 204.376 147.178 204.432 147.475 204.509C147.371 204.512 147.668 204.698 147.817 204.761C147.837 204.801 147.881 204.873 147.954 204.984C148.055 205.176 148.357 205.756 148.369 205.738C148.821 206.885 149.195 208.063 149.486 209.261C150.181 211.905 150.334 212.457 150.434 214.937C150.561 218.07 153.096 221.088 156.418 220.939C159.552 220.798 162.537 218.297 162.402 214.937C162.173 209.276 161.182 202.916 157.802 198.168Z" fill="#E6E6E6"/>
<path d="M106.991 211.711C106.305 207.54 105.632 203.366 104.933 199.198C104.223 194.969 102.773 191.096 99.4919 188.321C98.6152 187.579 97.7062 186.887 96.7933 186.197C96.4723 185.954 96.1518 185.711 95.8346 185.463C95.8156 185.448 95.8036 185.439 95.7871 185.426C95.7523 185.396 95.7104 185.36 95.6542 185.312C94.2866 184.152 92.9653 182.939 91.7066 181.65C90.5888 180.506 89.5199 179.312 88.4998 178.07C88.2448 177.76 87.9932 177.447 87.7449 177.131C87.7021 177.077 87.472 176.778 87.3205 176.584C87.1795 176.389 86.9218 176.037 86.8786 175.976C86.5884 175.564 86.3034 175.149 86.0236 174.73C84.1177 171.866 82.4675 168.839 81.0919 165.684C80.9555 165.371 80.8223 165.056 80.6923 164.74C80.6575 164.643 80.6123 164.519 80.5525 164.354C80.2753 163.589 79.9986 162.826 79.7451 162.052C79.2066 160.409 78.7437 158.741 78.3562 157.05C78.1647 156.214 77.9922 155.375 77.8389 154.531C77.7598 154.097 77.6859 153.662 77.617 153.226C77.6057 153.154 77.5385 152.684 77.4989 152.418C77.4696 152.151 77.4152 151.679 77.4079 151.606C77.3641 151.167 77.3252 150.727 77.2913 150.287C77.2147 149.297 77.163 148.305 77.136 147.311C77.09 145.545 77.1216 143.779 77.2306 142.014C77.2927 141.022 77.3811 140.032 77.4899 139.045C77.4965 138.984 77.5016 138.936 77.5064 138.892C77.513 138.848 77.5206 138.798 77.5298 138.736C77.6103 138.19 77.695 137.645 77.7898 137.102C78.1487 135.039 78.6155 132.996 79.1882 130.983C79.4594 130.03 79.7539 129.086 80.0718 128.149C80.2136 127.733 80.3598 127.318 80.5105 126.906C80.5006 126.932 80.9526 125.774 80.9586 125.736C82.7518 121.486 85.6849 117.612 85.6889 112.785C85.6916 109.516 82.9348 106.385 79.7052 106.537C78.095 106.597 76.5712 107.283 75.4549 108.448C74.3387 109.614 73.7172 111.169 73.7214 112.785C73.7214 112.858 73.7211 112.921 73.7209 112.981C73.6908 113.083 73.6656 113.168 73.6429 113.243C73.2932 114.005 72.8648 114.73 72.481 115.473C71.4299 117.507 70.5327 119.608 69.6805 121.74C68.2853 125.212 67.2174 128.807 66.4907 132.479C64.9111 140.523 64.7885 148.787 66.1287 156.875C68.4488 171.059 76.0997 184.636 86.7363 193.762C87.6594 194.554 88.605 195.32 89.5595 196.069C89.9544 196.38 90.3527 196.684 90.753 196.987C90.9422 197.13 91.7259 197.75 91.3812 197.449C92.1226 198.084 92.4346 198.403 92.6251 198.871C92.6527 198.979 92.6903 199.125 92.7412 199.325C92.8755 199.852 93.0029 200.378 93.1088 200.913C94.0347 205.583 94.6782 210.332 95.4515 215.033C95.9831 218.263 99.9475 220.365 102.812 219.397C106.147 218.27 107.561 215.172 106.991 211.711Z" fill="#E6E6E6"/>
<path d="M158.407 223.825C155.894 223.831 153.481 222.838 151.698 221.062C149.914 219.287 148.905 216.874 148.893 214.353V207.507C141.747 208.31 117.275 208.124 110.261 206.993V214.08C110.242 216.598 109.231 219.007 107.449 220.781C105.667 222.555 103.257 223.551 100.746 223.551C98.2354 223.551 95.8262 222.555 94.044 220.781C92.2618 219.007 91.2511 216.598 91.2323 214.08V200.166C81.7315 194.873 73.8112 187.132 68.2889 177.743C62.7666 168.354 59.8423 157.658 59.8177 146.757C59.8177 128.066 68.2633 110.629 82.9892 98.919C92.5638 91.2792 104.197 86.6847 116.394 85.7255C118.05 85.5952 119.716 85.5293 121.345 85.5293C127.087 85.5293 152.991 86.4189 159.491 88.2944L174.311 73.5448C174.529 73.325 174.807 73.1753 175.11 73.1147C175.413 73.0542 175.727 73.0855 176.013 73.2047C176.3 73.3194 176.546 73.5186 176.719 73.7761C176.891 74.0336 176.982 74.3374 176.979 74.6476V76.9927L179.865 74.1262C180.082 73.9062 180.36 73.7562 180.663 73.6955C180.966 73.6348 181.28 73.6662 181.565 73.7855C181.853 73.9001 182.099 74.0993 182.272 74.3569C182.445 74.6145 182.536 74.9185 182.533 75.2289V101.435C189.969 108.159 195.637 116.62 199.034 126.066C202.431 135.513 203.453 145.654 202.007 155.591C200.562 165.528 196.696 174.954 190.75 183.034C184.804 191.114 176.963 197.598 167.921 201.912V214.353C167.909 216.874 166.9 219.287 165.117 221.062C163.333 222.838 160.92 223.831 158.407 223.825ZM149.641 206.657V214.353C149.66 216.673 150.592 218.891 152.234 220.524C153.876 222.158 156.094 223.074 158.407 223.074C160.72 223.074 162.939 222.158 164.581 220.524C166.222 218.891 167.154 216.673 167.173 214.353V201.438L167.387 201.336C177.532 196.508 186.145 188.953 192.268 179.512C200.071 167.465 203.316 153.013 201.416 138.774C199.516 124.534 192.596 111.447 181.909 101.882L181.785 101.77V75.2289C181.788 75.0677 181.741 74.9095 181.651 74.7756C181.561 74.6418 181.433 74.5387 181.283 74.4804C181.134 74.4165 180.969 74.3992 180.81 74.4309C180.651 74.4626 180.506 74.5417 180.392 74.6578L176.231 78.7916V74.6476C176.234 74.4863 176.187 74.3281 176.097 74.1943C176.008 74.0604 175.879 73.9574 175.729 73.899C175.58 73.8352 175.415 73.8182 175.256 73.8501C175.097 73.882 174.951 73.9613 174.837 74.0778L159.7 89.1431L159.485 89.0755C153.443 87.1788 127.13 86.2795 121.345 86.2795C119.735 86.2795 118.089 86.3447 116.453 86.4735C104.404 87.4209 92.9121 91.9597 83.454 99.5067C68.9081 111.074 60.5656 128.296 60.5656 146.757C60.5905 157.561 63.4992 168.162 68.9896 177.457C74.48 186.753 82.3518 194.405 91.7873 199.618L91.9802 199.725V214.08C91.9995 216.399 92.9316 218.616 94.5735 220.25C96.2154 221.883 98.4341 222.799 100.746 222.799C103.059 222.799 105.278 221.883 106.919 220.25C108.561 218.616 109.493 216.399 109.513 214.08V206.095L109.956 206.179C116.26 207.368 142.803 207.556 149.218 206.712L149.641 206.657Z" fill="#3F3D56"/>
<path d="M107.706 44.6809L66.2913 57.1642C64.9741 57.5629 63.8685 58.4697 63.2174 59.6854C62.5663 60.9012 62.423 62.3264 62.8189 63.6481C63.2149 64.9697 64.1178 66.0797 65.3292 66.7341C66.5406 67.3885 67.9614 67.5338 69.2796 67.1381L105.522 56.2115L106.281 55.9827C106.435 52.0586 107.496 48.2241 109.382 44.7822C109.145 44.6754 108.892 44.6095 108.634 44.5871C108.321 44.5568 108.006 44.5887 107.706 44.6809Z" fill="#6C63FF"/>
<path d="M68.5633 69.7996C68.0135 69.7982 67.4781 69.6236 67.0326 69.3004C66.5872 68.9773 66.2542 68.5219 66.0808 67.9986L63.4911 60.1605C63.3829 59.8332 63.3401 59.4877 63.3651 59.1438C63.39 58.7999 63.4823 58.4642 63.6366 58.1561C63.7909 57.848 64.0042 57.5733 64.2644 57.3479C64.5245 57.1224 64.8264 56.9506 65.1528 56.8421L98.8603 45.6379C99.1866 45.5294 99.5311 45.4864 99.874 45.5114C100.217 45.5365 100.551 45.629 100.859 45.7837C101.166 45.9384 101.44 46.1523 101.665 46.4131C101.889 46.674 102.061 46.9767 102.169 47.304L104.759 55.1421C104.974 55.7868 104.931 56.4903 104.638 57.1035C104.345 57.7168 103.826 58.1917 103.19 58.4277C103.159 58.4394 103.128 58.4505 103.096 58.4609L69.3894 69.6648C69.123 69.7538 68.8441 69.7993 68.5633 69.7996Z" fill="#2F2E41"/>
<path d="M131.69 30.761C124.887 30.7636 118.351 33.4213 113.467 38.1714C108.584 42.9215 105.734 49.3913 105.522 56.2115C105.515 56.4778 105.511 56.7479 105.511 57.018C105.511 62.2111 107.046 67.2876 109.923 71.6055C112.799 75.9235 116.888 79.2889 121.672 81.2762C126.455 83.2635 131.719 83.7835 136.797 82.7704C141.875 81.7573 146.54 79.2565 150.201 75.5844C153.862 71.9123 156.355 67.2338 157.366 62.1404C158.376 57.0471 157.857 51.7677 155.876 46.9699C153.894 42.172 150.539 38.0712 146.234 35.1861C141.929 32.3009 136.867 30.761 131.69 30.761ZM131.69 82.5247C124.947 82.5177 118.483 79.8281 113.715 75.0462C108.948 70.2642 106.266 63.7806 106.259 57.018C106.259 56.6691 106.266 56.324 106.281 55.9827C106.484 50.9863 108.146 46.1598 111.062 42.1034C113.977 38.047 118.017 34.9396 122.679 33.1677C127.341 31.3958 132.42 31.0374 137.284 32.1373C142.147 33.2371 146.581 35.7465 150.034 39.3536C153.487 42.9606 155.807 47.5061 156.705 52.4249C157.603 57.3436 157.039 62.4186 155.085 67.0188C153.13 71.6189 149.87 75.5413 145.711 78.2982C141.551 81.0551 136.675 82.5248 131.69 82.5247Z" fill="#3F3D56"/>
<path d="M153.755 57.018C153.755 62.8874 151.43 68.5165 147.292 72.6668C143.154 76.8172 137.542 79.1488 131.69 79.1488C125.838 79.1488 120.225 76.8172 116.087 72.6668C111.949 68.5165 109.625 62.8874 109.625 57.018C109.625 56.3165 109.658 55.6263 109.722 54.9437C110.254 49.279 112.94 44.0374 117.224 40.3071C121.507 36.5769 127.058 34.6446 132.725 34.9116C138.391 35.1785 143.738 37.6241 147.654 41.7406C151.57 45.8572 153.755 51.3283 153.755 57.018Z" fill="#E6E6E6"/>
<path d="M138.261 58.4883C137.726 57.783 137.022 57.2244 136.215 56.8642C135.219 56.4433 134.191 56.1046 133.141 55.8514V49.8273C134.756 50.0715 136.27 50.764 137.513 51.8266L138.732 49.2196C138.031 48.5931 137.226 48.0942 136.353 47.7455C135.386 47.3528 134.371 47.0916 133.335 46.969V43.9157H130.512V46.999C129.421 47.1219 128.37 47.4761 127.426 48.0381C126.574 48.5439 125.857 49.2492 125.336 50.0936C124.838 50.9177 124.581 51.8648 124.592 52.8281C124.543 53.8719 124.844 54.902 125.448 55.7539C126.003 56.4914 126.737 57.0749 127.58 57.4493C128.591 57.8826 129.637 58.2301 130.706 58.4883V64.2611C128.801 64.117 126.985 63.3904 125.504 62.1793L124.285 64.79C125.113 65.4767 126.055 66.0124 127.067 66.3729C128.177 66.7712 129.336 67.0135 130.512 67.0931V70.1202H133.335V67.0369C134.904 66.865 136.374 66.1886 137.528 65.1088C138.035 64.6203 138.437 64.0313 138.706 63.3792C138.975 62.727 139.106 62.026 139.091 61.3203C139.138 60.3098 138.845 59.3126 138.261 58.4883ZM130.706 55.2137C130.018 55.0045 129.379 54.6603 128.825 54.201C128.606 54.0051 128.432 53.7629 128.317 53.4918C128.202 53.2207 128.148 52.9275 128.159 52.633C128.139 51.965 128.384 51.316 128.84 50.8288C129.346 50.3176 129.998 49.9779 130.706 49.8573V55.2137ZM134.914 63.1958C134.436 63.6866 133.815 64.0113 133.141 64.1223V59.156C133.785 59.3295 134.388 59.6319 134.914 60.045C135.113 60.2155 135.271 60.4289 135.376 60.6691C135.482 60.9094 135.532 61.1705 135.523 61.4329C135.549 62.0766 135.331 62.7064 134.914 63.1958Z" fill="#6C63FF"/>
<path d="M69.7653 101.566C69.1871 101.565 68.6255 101.373 68.1674 101.019C67.7093 100.666 67.3803 100.17 67.2315 99.6099L65.8216 94.2572C65.6451 93.5844 65.7419 92.8689 66.0907 92.2676C66.4395 91.6663 67.0118 91.2282 67.6822 91.0496L112.164 79.2604C112.835 79.0847 113.548 79.1828 114.148 79.5333C114.747 79.8837 115.184 80.458 115.362 81.1304L116.556 85.6653L116.333 85.6827C104.924 86.5724 94.009 90.7209 84.8778 97.6375L84.8129 97.669L70.4294 101.48C70.2127 101.537 69.9895 101.566 69.7653 101.566Z" fill="#2F2E41"/>
<path d="M62.3982 128.006C57.1803 127.232 52.1899 125.34 47.7672 122.457C45.5761 121.03 43.5477 119.366 41.7184 117.495C39.9129 115.648 38.1856 113.549 37.2913 111.089C36.4308 108.813 36.4752 106.292 37.4152 104.048C38.3423 101.818 40.1134 100.048 42.3401 99.1251C44.5801 98.2291 47.2864 98.1333 49.4665 99.1145C50.5053 99.5712 51.4042 100.297 52.071 101.217C52.3809 101.642 52.6104 102.119 52.748 102.627C52.8757 103.087 52.8873 103.571 52.7818 104.037C52.654 104.502 52.4285 104.934 52.1206 105.304C51.8127 105.674 51.4294 105.974 50.9965 106.184C50.0436 106.674 49.0112 106.99 47.9477 107.116C46.8781 107.263 45.3415 107.396 44.4816 106.534C44.3046 106.364 44.1654 106.158 44.073 105.93C44.0084 105.756 43.9863 105.568 44.0086 105.383C43.996 105.465 44.0604 105.206 44.0568 105.216C44.0432 105.255 43.9843 105.348 44.068 105.205C44.0941 105.158 44.1233 105.112 44.1552 105.069C44.1267 105.105 44.0643 105.167 44.1758 105.061C44.2679 104.96 44.3863 104.887 44.5177 104.85C44.5695 104.835 44.622 104.823 44.6739 104.808C44.8058 104.772 44.5424 104.81 44.6774 104.806C44.7295 104.804 44.7822 104.806 44.8341 104.803C44.9665 104.797 44.7035 104.767 44.8303 104.799C44.8796 104.811 44.9284 104.824 44.9769 104.839C45.0824 104.872 44.9022 104.761 44.9737 104.844C45.0575 104.942 44.8858 104.75 44.981 104.844C45.0284 104.891 45.073 104.94 45.1147 104.992C45.2799 105.155 45.5026 105.247 45.7346 105.247C45.9667 105.247 46.1894 105.155 46.3545 104.992C46.514 104.824 46.603 104.602 46.603 104.37C46.603 104.138 46.514 103.916 46.3545 103.748C45.4901 102.674 43.7826 102.939 42.9081 103.847C41.7929 105.006 42.2346 106.842 43.3193 107.853C44.5474 108.997 46.2867 109.077 47.8664 108.885C49.2014 108.756 50.5024 108.388 51.7069 107.796C52.9037 107.206 53.8397 106.192 54.3337 104.95C54.5568 104.287 54.6369 103.584 54.5688 102.888C54.5007 102.191 54.2859 101.517 53.9386 100.91C52.5439 98.2806 49.656 96.9323 46.8014 96.6987C45.3317 96.5832 43.8538 96.7612 42.4532 97.2224C41.0526 97.6836 39.757 98.4188 38.6416 99.3855C36.4915 101.327 35.1676 104.023 34.9435 106.916C34.6944 109.915 35.8546 112.828 37.5462 115.248C39.317 117.708 41.4303 119.9 43.8214 121.757C48.4959 125.501 53.9792 128.094 59.8323 129.331C60.5285 129.475 61.2285 129.599 61.9322 129.701C62.1561 129.756 62.3922 129.723 62.5926 129.608C62.7929 129.494 62.9424 129.308 63.0105 129.087C63.0706 128.862 63.0401 128.623 62.9255 128.421C62.8109 128.218 62.6215 128.069 62.3982 128.006Z" fill="#3F3D56"/>
<path d="M145.941 89.792C138.296 89.6837 130.675 89.8783 123.078 90.3758C120.481 90.5458 118.234 91.4663 118.234 93.0135C118.234 94.307 120.463 95.8224 123.078 95.6512C130.671 95.1539 138.292 94.9593 145.941 95.0674C152.176 95.1557 152.173 89.8802 145.941 89.792Z" fill="#CCCCCC"/>
<path d="M134.641 94.8061C133.815 94.8061 114.406 94.7752 114.406 92.0863C114.406 89.3975 133.815 89.3666 134.641 89.3666C135.467 89.3666 154.876 89.3976 154.876 92.0863C154.876 94.7752 135.467 94.8061 134.641 94.8061ZM115.165 92.0863C115.697 92.9015 122.831 94.0559 134.641 94.0559C146.452 94.0559 153.586 92.9015 154.117 92.0863C153.586 91.2712 146.452 90.1168 134.641 90.1168C122.831 90.1168 115.697 91.2712 115.165 92.0863Z" fill="#3F3D56"/>
<path d="M196.219 165.494C200.515 165.374 205.862 165.224 209.982 162.206C211.208 161.271 212.216 160.077 212.935 158.71C213.653 157.343 214.065 155.834 214.141 154.29C214.225 151.907 213.366 149.826 211.723 148.434C209.571 146.61 206.43 146.182 203.044 147.18L206.552 121.468L203.977 121.114L199.853 151.342L202.003 150.353C204.496 149.206 207.919 148.622 210.045 150.424C210.567 150.896 210.974 151.481 211.234 152.136C211.494 152.791 211.6 153.497 211.543 154.199C211.48 155.348 211.171 156.47 210.637 157.488C210.103 158.507 209.357 159.398 208.449 160.101C205.243 162.449 200.981 162.752 196.147 162.888L196.219 165.494Z" fill="#3F3D56"/>
<path d="M189.099 123.686H175.1V126.293H189.099V123.686Z" fill="#3F3D56"/>
<path d="M76.1 113.557C75.4769 113.555 74.8749 113.33 74.4017 112.923C73.9286 112.517 73.6153 111.954 73.518 111.337L72.6636 105.868C72.5568 105.18 72.7265 104.477 73.1354 103.915C73.5444 103.352 74.1591 102.975 74.8447 102.867L120.295 95.7241C120.981 95.6171 121.681 95.7873 122.242 96.1974C122.803 96.6075 123.179 97.224 123.287 97.9117L124.141 103.381C124.248 104.069 124.078 104.772 123.67 105.334C123.261 105.897 122.646 106.273 121.96 106.382L76.5096 113.525C76.3741 113.546 76.2372 113.557 76.1 113.557Z" fill="#2F2E41"/>
<path d="M57.2902 49.4586C67.824 49.4586 76.3634 40.8938 76.3634 30.3286C76.3634 19.7633 67.824 11.1985 57.2902 11.1985C46.7564 11.1985 38.2171 19.7633 38.2171 30.3286C38.2171 40.8938 46.7564 49.4586 57.2902 49.4586Z" fill="#6C63FF"/>
<path d="M68.0891 35.2783C68.6987 35.0645 69.2555 34.7222 69.7222 34.2745C70.031 33.9553 70.2665 33.5723 70.4121 33.1522C70.5578 32.7322 70.6101 32.2852 70.5655 31.8428C70.5395 31.5274 70.4412 31.2223 70.2783 30.9513C70.1153 30.6804 69.8921 30.4509 69.626 30.2808C68.9357 29.855 68.0236 29.8711 67.1028 30.2993L66.9965 22.8319L66.2486 22.8425L66.3735 31.6213L66.9429 31.2468C67.603 30.8132 68.5516 30.4988 69.2341 30.9198C69.4029 31.0313 69.5438 31.1803 69.6458 31.3553C69.7478 31.5303 69.8082 31.7265 69.8224 31.9287C69.8538 32.2583 69.8141 32.5909 69.7059 32.9038C69.5978 33.2166 69.4237 33.5025 69.1955 33.7418C68.3847 34.5487 67.1846 34.819 65.8149 35.0663L65.9475 35.8046C66.6756 35.6937 67.3923 35.5176 68.0891 35.2783Z" fill="#2F2E41"/>
<path d="M74.6982 22.3077L70.7152 22.9127L70.8272 23.6544L74.8102 23.0494L74.6982 22.3077Z" fill="#2F2E41"/>
<path d="M62.1261 24.217L58.1431 24.822L58.255 25.5636L62.2381 24.9586L62.1261 24.217Z" fill="#2F2E41"/>
<path d="M69.8946 113.222C69.2087 113.221 68.5394 113.01 67.976 112.618C67.4125 112.225 66.9815 111.67 66.7403 111.026L53.5899 75.7033C51.9826 71.3712 52.1542 66.5765 54.0671 62.3712C55.9801 58.1658 59.4781 54.8933 63.7937 53.2715L74.4865 49.2669C74.9 49.111 75.3401 49.0386 75.7815 49.054C76.223 49.0694 76.6571 49.1722 77.0588 49.3565C77.4595 49.536 77.8205 49.7939 78.1207 50.115C78.4209 50.4361 78.6543 50.814 78.8073 51.2266L103.167 97.3578C103.325 97.7738 103.4 98.217 103.387 98.662C103.373 99.107 103.272 99.545 103.09 99.9507C102.907 100.356 102.646 100.722 102.322 101.026C101.998 101.33 101.617 101.567 101.201 101.723L71.0709 113.008C70.6947 113.149 70.2963 113.222 69.8946 113.222Z" fill="#2F2E41"/>
<path d="M71.2423 50.4818L95.4125 82.9L79.0576 50.8221C78.9225 50.4478 78.7152 50.1038 78.4476 49.8099C78.18 49.516 77.8573 49.2778 77.4978 49.109C77.1384 48.9402 76.7494 48.8441 76.3529 48.8261C75.9565 48.8082 75.5604 48.8687 75.1872 49.0043L71.2423 50.4818Z" fill="#E6E6E6"/>
<path d="M109.513 75.1015L66.3569 72.3133C65.6766 72.2694 65.0117 72.0915 64.4 71.7898C63.7883 71.4881 63.2418 71.0685 62.7918 70.555C62.3418 70.0415 61.997 69.4441 61.7772 68.797C61.5573 68.1498 61.4667 67.4656 61.5106 66.7833C61.5544 66.101 61.7317 65.4341 62.0325 64.8206C62.3333 64.207 62.7516 63.659 63.2636 63.2076C63.7756 62.7562 64.3712 62.4104 65.0165 62.1899C65.6617 61.9694 66.3439 61.8786 67.0241 61.9225L110.18 64.7105C110.499 64.731 110.81 64.8143 111.096 64.9556C111.383 65.0969 111.639 65.2934 111.85 65.5338C112.06 65.7743 112.222 66.0541 112.325 66.3572C112.428 66.6602 112.47 66.9807 112.45 67.3002L112.095 72.8251C112.053 73.4704 111.758 74.0727 111.274 74.4996C110.79 74.9265 110.156 75.143 109.513 75.1015Z" fill="#6C63FF"/>
<path d="M97.9808 76.8889C97.9239 76.8889 97.8667 76.8871 97.8095 76.8834L62.3722 74.594C62.0291 74.5718 61.6937 74.4822 61.3852 74.33C61.0767 74.1779 60.8011 73.9663 60.5741 73.7073C60.3472 73.4483 60.1733 73.147 60.0624 72.8207C59.9515 72.4943 59.9059 72.1492 59.928 71.8051L60.534 62.3683C60.5561 62.0241 60.6455 61.6878 60.7972 61.3784C60.949 61.0689 61.16 60.7925 61.4182 60.5649C61.6764 60.3373 61.9769 60.1629 62.3023 60.0517C62.6277 59.9405 62.9718 59.8947 63.3149 59.9169L98.752 62.2062C99.4445 62.2517 100.091 62.5709 100.549 63.0937C101.007 63.6165 101.24 64.3003 101.196 64.995L100.59 74.432C100.557 74.9377 100.379 75.423 100.077 75.8295C99.7755 76.2361 99.3633 76.5468 98.89 76.7242C98.5993 76.8333 98.2913 76.8891 97.9808 76.8889Z" fill="#2F2E41"/>
<path d="M57.0716 17.6074C59.5807 15.4429 63.0263 17.3792 65.9038 17.0402C68.6568 16.7159 70.8306 14.2391 71.3859 11.6079C72.0337 8.53807 70.4451 5.46256 68.1036 3.54859C65.539 1.45232 62.1377 0.850528 58.9146 1.23835C55.2206 1.68285 51.8422 3.40993 48.8107 5.49893C45.8847 7.45287 43.1938 9.73983 40.7919 12.3142C38.6411 14.6967 36.8188 17.5366 36.2369 20.7426C35.7081 23.6562 36.1119 26.8848 37.8291 29.353C38.7398 30.6181 39.9601 31.6264 41.3723 32.2808C42.8449 33.006 44.4156 33.5245 45.8422 34.3445C47.9993 35.5843 50.0957 38.155 49.42 40.8303C49.2752 41.4147 48.9893 41.9544 48.5876 42.4019C48.1049 42.9394 47.2342 42.2292 47.7182 41.6904C48.5682 40.744 48.5347 39.4818 48.0817 38.3519C47.5431 37.0787 46.5893 36.0267 45.3765 35.3682C43.8832 34.5119 42.2345 33.9833 40.704 33.2033C39.239 32.4908 37.9674 31.4338 36.9973 30.1223C35.1654 27.569 34.6175 24.2461 35.0329 21.1721C35.4825 17.8455 37.1866 14.8227 39.3228 12.2896C41.6475 9.53279 44.5031 7.19926 47.4204 5.1029C50.5507 2.85348 54.009 0.951759 57.8359 0.263935C61.1532 -0.3323 64.7488 0.0347799 67.6497 1.84795C70.3574 3.54044 72.4338 6.45184 72.6403 9.70505C72.7144 11.1852 72.394 12.6585 71.7119 13.9733C71.0299 15.288 70.0109 16.3967 68.7597 17.1853C67.476 17.9558 65.9834 18.3026 64.4926 18.1768C62.8988 18.0745 61.3035 17.585 59.6996 17.7209C58.9738 17.7651 58.2821 18.0454 57.7294 18.5193C57.1812 18.9922 56.5278 18.0764 57.0716 17.6074Z" fill="#2F2E41"/>
<path d="M276.555 224H0.44529C0.327413 224 0.214484 223.952 0.131254 223.869C0.048023 223.785 0.00128174 223.672 0.00128174 223.553C0.00128174 223.435 0.048023 223.322 0.131254 223.238C0.214484 223.154 0.327413 223.107 0.44529 223.107H276.555C276.673 223.107 276.786 223.154 276.87 223.238C276.953 223.321 277 223.435 277 223.553C277 223.672 276.953 223.785 276.87 223.869C276.786 223.953 276.673 224 276.555 224Z" fill="#3F3D56"/>
</g>
<defs>
<clipPath id="clip0_6_452">
<rect width="277" height="224" fill="white"/>
</clipPath>
</defs>
</svg>
