<svg width="339" height="197" viewBox="0 0 339 197" fill="none" xmlns="http://www.w3.org/2000/svg">
<g clip-path="url(#clip0_6_478)">
<path d="M205.714 109.49H6.95949C5.11435 109.488 3.34539 108.758 2.04068 107.461C0.735973 106.164 0.00207715 104.405 0 102.57V6.91942C0.00207715 5.08491 0.735973 3.32613 2.04068 2.02893C3.34539 0.731736 5.11435 0.00206519 6.95949 0H205.714C207.559 0.00206519 209.328 0.731736 210.633 2.02893C211.938 3.32613 212.672 5.08491 212.674 6.91942V102.57C212.672 104.405 211.938 106.164 210.633 107.461C209.328 108.758 207.559 109.488 205.714 109.49ZM6.95949 0.81405C5.33143 0.815881 3.77058 1.45971 2.61937 2.60429C1.46816 3.74887 0.820605 5.30074 0.818763 6.91942V102.57C0.820605 104.189 1.46816 105.741 2.61937 106.885C3.77058 108.03 5.33143 108.674 6.95949 108.676H205.714C207.342 108.674 208.903 108.03 210.054 106.885C211.206 105.741 211.853 104.189 211.855 102.57V6.91942C211.853 5.30074 211.206 3.74887 210.054 2.60429C208.903 1.45971 207.342 0.815881 205.714 0.81405H6.95949Z" fill="#3F3D56"/>
<path d="M38.1748 23.811C40.2096 23.811 41.8592 22.1709 41.8592 20.1477C41.8592 18.1246 40.2096 16.4845 38.1748 16.4845C36.1399 16.4845 34.4904 18.1246 34.4904 20.1477C34.4904 22.1709 36.1399 23.811 38.1748 23.811Z" fill="#CCCCCC"/>
<path d="M38.1748 37.6498C40.2096 37.6498 41.8592 36.0097 41.8592 33.9866C41.8592 31.9634 40.2096 30.3233 38.1748 30.3233C36.1399 30.3233 34.4904 31.9634 34.4904 33.9866C34.4904 36.0097 36.1399 37.6498 38.1748 37.6498Z" fill="#CCCCCC"/>
<path d="M38.1748 51.4886C40.2096 51.4886 41.8592 49.8486 41.8592 47.8254C41.8592 45.8023 40.2096 44.1622 38.1748 44.1622C36.1399 44.1622 34.4904 45.8023 34.4904 47.8254C34.4904 49.8486 36.1399 51.4886 38.1748 51.4886Z" fill="#CCCCCC"/>
<path d="M38.1748 65.3275C40.2096 65.3275 41.8592 63.6874 41.8592 61.6643C41.8592 59.6411 40.2096 58.001 38.1748 58.001C36.1399 58.001 34.4904 59.6411 34.4904 61.6643C34.4904 63.6874 36.1399 65.3275 38.1748 65.3275Z" fill="#CCCCCC"/>
<path d="M100.196 93.0052C102.231 93.0052 103.881 91.3651 103.881 89.3419C103.881 87.3188 102.231 85.6787 100.196 85.6787C98.1613 85.6787 96.5117 87.3188 96.5117 89.3419C96.5117 91.3651 98.1613 93.0052 100.196 93.0052Z" fill="#CCCCCC"/>
<path d="M73.5863 93.0052C75.6211 93.0052 77.2707 91.3651 77.2707 89.3419C77.2707 87.3188 75.6211 85.6787 73.5863 85.6787C71.5514 85.6787 69.9019 87.3188 69.9019 89.3419C69.9019 91.3651 71.5514 93.0052 73.5863 93.0052Z" fill="#CCCCCC"/>
<path d="M155.053 93.0052C157.088 93.0052 158.738 91.3651 158.738 89.3419C158.738 87.3188 157.088 85.6787 155.053 85.6787C153.018 85.6787 151.369 87.3188 151.369 89.3419C151.369 91.3651 153.018 93.0052 155.053 93.0052Z" fill="#CCCCCC"/>
<path d="M127.215 93.0052C129.25 93.0052 130.9 91.3651 130.9 89.3419C130.9 87.3188 129.25 85.6787 127.215 85.6787C125.18 85.6787 123.531 87.3188 123.531 89.3419C123.531 91.3651 125.18 93.0052 127.215 93.0052Z" fill="#CCCCCC"/>
<path d="M177.774 20.5547H56.597C56.4884 20.5547 56.3843 20.5119 56.3075 20.4355C56.2307 20.3592 56.1876 20.2557 56.1876 20.1477C56.1876 20.0398 56.2307 19.9363 56.3075 19.8599C56.3843 19.7836 56.4884 19.7407 56.597 19.7407H177.774C177.883 19.7407 177.987 19.7836 178.063 19.8599C178.14 19.9363 178.183 20.0398 178.183 20.1477C178.183 20.2557 178.14 20.3592 178.063 20.4355C177.987 20.5119 177.883 20.5547 177.774 20.5547Z" fill="#CCCCCC"/>
<path d="M177.774 34.3936H56.597C56.4884 34.3936 56.3843 34.3507 56.3075 34.2744C56.2307 34.198 56.1876 34.0945 56.1876 33.9866C56.1876 33.8786 56.2307 33.7751 56.3075 33.6988C56.3843 33.6224 56.4884 33.5795 56.597 33.5795H177.774C177.883 33.5795 177.987 33.6224 178.063 33.6988C178.14 33.7751 178.183 33.8786 178.183 33.9866C178.183 34.0945 178.14 34.198 178.063 34.2744C177.987 34.3507 177.883 34.3936 177.774 34.3936Z" fill="#CCCCCC"/>
<path d="M177.774 48.2324H56.597C56.4884 48.2324 56.3843 48.1895 56.3075 48.1132C56.2307 48.0369 56.1876 47.9334 56.1876 47.8254C56.1876 47.7175 56.2307 47.6139 56.3075 47.5376C56.3843 47.4613 56.4884 47.4184 56.597 47.4184H177.774C177.883 47.4184 177.987 47.4613 178.063 47.5376C178.14 47.6139 178.183 47.7175 178.183 47.8254C178.183 47.9334 178.14 48.0369 178.063 48.1132C177.987 48.1895 177.883 48.2324 177.774 48.2324Z" fill="#CCCCCC"/>
<path d="M177.774 62.0713H56.597C56.4884 62.0713 56.3843 62.0284 56.3075 61.9521C56.2307 61.8757 56.1876 61.7722 56.1876 61.6643C56.1876 61.5563 56.2307 61.4528 56.3075 61.3764C56.3843 61.3001 56.4884 61.2572 56.597 61.2572H177.774C177.883 61.2572 177.987 61.3001 178.063 61.3764C178.14 61.4528 178.183 61.5563 178.183 61.6643C178.183 61.7722 178.14 61.8757 178.063 61.9521C177.987 62.0284 177.883 62.0713 177.774 62.0713Z" fill="#CCCCCC"/>
<path d="M79.5224 75.9101H67.6503C67.1076 75.9095 66.5873 75.6949 66.2036 75.3134C65.8199 74.9318 65.604 74.4146 65.6034 73.875V62.8853C65.604 62.3458 65.8199 61.8285 66.2036 61.447C66.5873 61.0654 67.1076 60.8508 67.6503 60.8502H79.5224C80.065 60.8508 80.5853 61.0654 80.969 61.447C81.3528 61.8285 81.5686 62.3458 81.5693 62.8853V73.875C81.5686 74.4146 81.3528 74.9318 80.969 75.3134C80.5853 75.6949 80.065 75.9095 79.5224 75.9101Z" fill="#6C63FF"/>
<path d="M106.132 75.9101H94.2602C93.7175 75.9095 93.1972 75.6949 92.8135 75.3134C92.4297 74.9318 92.2139 74.4146 92.2133 73.875V49.0465C92.2139 48.5069 92.4297 47.9897 92.8135 47.6081C93.1972 47.2266 93.7175 47.012 94.2602 47.0114H106.132C106.675 47.012 107.195 47.2266 107.579 47.6081C107.963 47.9897 108.179 48.5069 108.179 49.0465V73.875C108.179 74.4146 107.963 74.9318 107.579 75.3134C107.195 75.6949 106.675 75.9095 106.132 75.9101Z" fill="#6C63FF"/>
<path d="M133.151 75.9101H121.279C120.737 75.9095 120.216 75.6949 119.833 75.3134C119.449 74.9318 119.233 74.4146 119.232 73.875V35.2076C119.233 34.6681 119.449 34.1508 119.833 33.7693C120.216 33.3878 120.737 33.1731 121.279 33.1725H133.151C133.694 33.1731 134.214 33.3878 134.598 33.7693C134.982 34.1508 135.198 34.6681 135.198 35.2076V73.875C135.198 74.4146 134.982 74.9318 134.598 75.3134C134.214 75.6949 133.694 75.9095 133.151 75.9101Z" fill="#6C63FF"/>
<path d="M160.989 75.9101H149.117C148.575 75.9095 148.054 75.6949 147.671 75.3134C147.287 74.9318 147.071 74.4146 147.07 73.875V21.7758C147.071 21.2363 147.287 20.719 147.671 20.3375C148.054 19.9559 148.575 19.7413 149.117 19.7407H160.989C161.532 19.7413 162.052 19.9559 162.436 20.3375C162.82 20.719 163.036 21.2363 163.036 21.7758V73.875C163.036 74.4146 162.82 74.9318 162.436 75.3134C162.052 75.6949 161.532 75.9095 160.989 75.9101Z" fill="#6C63FF"/>
<path d="M271.605 194.698C267.924 191.605 265.688 186.719 266.274 181.963C266.861 177.207 270.493 172.834 275.204 171.824C279.916 170.814 285.286 173.61 286.717 178.186C287.505 169.364 288.413 160.172 293.13 152.659C297.402 145.857 304.8 140.989 312.818 140.118C320.837 139.247 329.279 142.536 334.28 148.829C339.28 155.121 340.505 164.269 337.002 171.493C334.422 176.815 329.669 180.775 324.689 183.997C308.595 194.321 289.293 198.519 270.334 195.82L271.605 194.698Z" fill="#F2F2F2"/>
<path d="M326.35 142.719C319.734 148.077 313.665 154.069 308.23 160.609C299.723 170.809 292.84 182.246 287.819 194.52C287.452 195.415 288.914 195.805 289.278 194.92C297.492 174.972 310.606 157.39 327.42 143.782C328.175 143.171 327.099 142.112 326.35 142.719Z" fill="white"/>
<path d="M232.778 82.6495C232.313 82.6483 231.849 82.602 231.392 82.5114C231.309 82.4949 231.225 82.477 231.142 82.4579L130.886 59.2495C129.797 58.9973 129.073 58.3162 129.203 57.665C129.258 57.4732 129.365 57.3002 129.512 57.165C129.659 57.0298 129.841 56.9377 130.038 56.8988C130.522 56.7662 131.031 56.7549 131.521 56.866L232.399 77.8123C234.671 78.2837 236.248 79.6697 235.989 80.9673C235.854 81.6464 235.253 82.1729 234.296 82.4499C233.802 82.5868 233.291 82.654 232.778 82.6495Z" fill="#3F3D56"/>
<path d="M211.54 79.4386C212.059 79.7418 212.639 79.9282 213.238 79.9847C213.837 80.0412 214.441 79.9664 215.008 79.7656C215.575 79.5647 216.091 79.2428 216.519 78.8223C216.947 78.4019 217.278 77.8932 217.487 77.3321L232.113 77.6353L228.061 71.2401L214.793 71.9326C213.822 71.6458 212.778 71.7233 211.86 72.1502C210.943 72.5772 210.214 73.3241 209.813 74.2493C209.413 75.1745 209.367 76.2138 209.685 77.1702C210.004 78.1266 210.664 78.9337 211.54 79.4386Z" fill="#FFB8B8"/>
<path d="M217.893 77.1156L217.817 72.6584C217.812 72.1984 217.979 71.7529 218.288 71.4097C218.596 71.0666 219.022 70.8505 219.482 70.8042L245.765 68.2824L267.663 61.1439C268.324 60.9284 269.021 60.8457 269.715 60.9006C270.408 60.9556 271.084 61.147 271.702 61.4637C272.32 61.7805 272.869 62.2163 273.316 62.7459C273.764 63.2754 274.101 63.8881 274.308 64.5482C274.515 65.2084 274.588 65.903 274.523 66.5915C274.458 67.28 274.255 67.9487 273.928 68.5588C273.6 69.1689 273.154 69.7081 272.615 70.1452C272.076 70.5823 271.455 70.9084 270.788 71.1048L246.55 78.2398L219.782 78.9158C219.377 78.9256 218.98 78.8028 218.653 78.5665C218.325 78.3302 218.085 77.9934 217.969 77.6079C217.921 77.448 217.896 77.2823 217.893 77.1156Z" fill="#3F3D56"/>
<path d="M256.788 192.027L251.769 192.027L249.381 172.779L256.789 172.78L256.788 192.027Z" fill="#FFB8B8"/>
<path d="M258.068 196.864L241.885 196.863V196.66C241.885 195.837 242.048 195.023 242.364 194.263C242.681 193.503 243.145 192.813 243.73 192.231C244.315 191.65 245.009 191.189 245.773 190.874C246.538 190.559 247.357 190.397 248.184 190.397H248.184L258.068 190.398L258.068 196.864Z" fill="#2F2E41"/>
<path d="M271.526 192.027L266.507 192.027L264.119 172.779L271.526 172.78L271.526 192.027Z" fill="#FFB8B8"/>
<path d="M272.806 196.864L256.623 196.863V196.66C256.623 195.837 256.785 195.023 257.102 194.263C257.419 193.503 257.883 192.813 258.467 192.231C259.052 191.65 259.747 191.189 260.511 190.874C261.275 190.559 262.094 190.397 262.921 190.397H262.922L272.806 190.398L272.806 196.864Z" fill="#2F2E41"/>
<path d="M274.894 114.241L273.696 184.939C273.692 185.163 273.642 185.384 273.548 185.587C273.455 185.791 273.32 185.973 273.152 186.123C272.985 186.273 272.788 186.386 272.574 186.457C272.36 186.527 272.134 186.553 271.91 186.533L266.037 186.002C265.652 185.967 265.291 185.798 265.02 185.524C264.748 185.251 264.582 184.89 264.553 184.507L261.114 140.407C261.106 140.304 261.059 140.207 260.981 140.137C260.904 140.068 260.802 140.03 260.698 140.032C260.593 140.034 260.494 140.076 260.419 140.148C260.345 140.221 260.301 140.32 260.297 140.423L258.578 185.532C258.562 185.953 258.383 186.351 258.078 186.643C257.773 186.936 257.366 187.099 256.942 187.099H250.643C250.226 187.099 249.825 186.94 249.521 186.656C249.218 186.372 249.034 185.984 249.009 185.57L244.6 113.834L270.8 107.322L274.894 114.241Z" fill="#2F2E41"/>
<path d="M255.89 47.857C261.443 47.857 265.945 43.3812 265.945 37.86C265.945 32.3388 261.443 27.8631 255.89 27.8631C250.337 27.8631 245.835 32.3388 245.835 37.86C245.835 43.3812 250.337 47.857 255.89 47.857Z" fill="#FFB8B8"/>
<path d="M243.703 116.344C243.528 116.177 243.389 115.977 243.293 115.756C243.198 115.535 243.147 115.297 243.144 115.056L242.466 66.8471C242.425 64.3948 243.167 61.9927 244.585 59.9858C246.004 57.979 248.025 56.4708 250.36 55.6778C251.302 51.4287 256.315 50.8964 259.238 50.96C259.967 50.9756 260.682 51.1659 261.322 51.5147C261.962 51.8635 262.508 52.3606 262.913 52.9638L265.008 56.0884L269.626 58.7798C271.763 60.02 273.449 61.9031 274.44 64.1574C275.431 66.4118 275.677 68.9209 275.141 71.3228L274.43 74.5381C271.926 85.9182 272.164 97.7256 275.125 108.997L276.555 114.42C276.63 114.703 276.636 114.999 276.572 115.284C276.508 115.569 276.376 115.834 276.188 116.058C276 116.283 275.76 116.459 275.49 116.572C275.219 116.686 274.925 116.733 274.632 116.711L272.971 116.584C272.539 116.551 272.133 116.369 271.824 116.068C271.514 115.767 271.321 115.368 271.279 114.94L271.004 112.206C270.999 112.156 270.975 112.109 270.938 112.076C270.9 112.042 270.851 112.023 270.8 112.023C270.749 112.023 270.701 112.042 270.663 112.076C270.625 112.109 270.602 112.156 270.597 112.206L270.33 114.853C270.285 115.3 270.077 115.715 269.744 116.019C269.411 116.323 268.978 116.495 268.526 116.502L245.014 116.862C245.005 116.862 244.995 116.862 244.985 116.862C244.506 116.863 244.046 116.677 243.703 116.344Z" fill="#3F3D56"/>
<path d="M256.677 43.6225C256.718 45.0356 257.705 45.8532 258.916 46.5934C260.128 47.3336 261.544 47.6546 262.931 47.9642C263.118 48.0626 263.326 48.1116 263.537 48.1064C263.748 48.1013 263.954 48.0422 264.135 47.9348C264.317 47.8274 264.467 47.6754 264.572 47.4935C264.677 47.3115 264.733 47.1057 264.735 46.8959L266.007 42.0836C266.457 40.5463 266.785 38.9762 266.987 37.3877C267.293 34.3313 266.565 31.0434 264.419 28.8335C262.274 26.6237 258.552 25.8387 255.981 27.5413C252.93 23.6665 238.982 32.2274 242.423 34.9218C243.035 35.4012 243.971 34.7946 244.747 34.7359C245.524 34.6771 246.395 34.8129 246.888 35.4124C247.533 36.1956 247.252 37.3623 247.518 38.3393C247.628 38.683 247.805 39.0018 248.04 39.2771C248.274 39.5524 248.561 39.7789 248.884 39.9434C249.207 40.1079 249.559 40.2073 249.921 40.2357C250.283 40.2642 250.646 40.2212 250.991 40.1092C251.634 39.7945 252.238 39.4082 252.792 38.9579C253.388 38.5632 254.141 38.2716 254.812 38.5205C255.696 38.8486 256.011 39.9249 256.09 40.8599C256.225 41.7924 256.421 42.7153 256.677 43.6225Z" fill="#2F2E41"/>
<path d="M331.161 197H175.187C175.079 197 174.974 196.957 174.898 196.881C174.821 196.804 174.778 196.701 174.778 196.593C174.778 196.485 174.821 196.382 174.898 196.305C174.974 196.229 175.079 196.186 175.187 196.186H331.161C331.27 196.186 331.374 196.229 331.451 196.305C331.528 196.382 331.571 196.485 331.571 196.593C331.571 196.701 331.528 196.804 331.451 196.881C331.374 196.957 331.27 197 331.161 197Z" fill="#3F3D56"/>
<path opacity="0.2" d="M254.328 70.4153L252.691 90.3595L244.094 111.118L256.785 90.7665L254.328 70.4153Z" fill="black"/>
<path d="M242.084 118.848C242.553 118.473 242.934 118.001 243.2 117.464C243.465 116.927 243.61 116.339 243.622 115.741C243.634 115.143 243.515 114.549 243.271 114.002C243.028 113.454 242.667 112.967 242.214 112.573L247.691 99.0862L240.239 100.582L236.18 113.161C235.566 113.962 235.268 114.959 235.344 115.963C235.42 116.968 235.863 117.91 236.591 118.611C237.319 119.312 238.28 119.724 239.292 119.767C240.304 119.811 241.298 119.484 242.084 118.848Z" fill="#FFB8B8"/>
<path d="M241.685 112.9L237.467 111.388C237.032 111.23 236.673 110.916 236.459 110.508C236.246 110.1 236.194 109.627 236.314 109.182L243.272 83.8575L244.333 60.9695C244.365 60.2787 244.535 59.601 244.833 58.976C245.131 58.351 245.55 57.791 246.068 57.3288C246.585 56.8665 247.19 56.511 247.846 56.2831C248.503 56.0553 249.199 55.9595 249.893 56.0013C250.588 56.0432 251.267 56.2218 251.891 56.5269C252.515 56.832 253.072 57.2575 253.529 57.7785C253.987 58.2996 254.335 58.9058 254.555 59.562C254.775 60.2182 254.861 60.9113 254.809 61.6009L252.914 86.6628L244.048 111.784C243.913 112.163 243.657 112.488 243.319 112.709C242.98 112.929 242.578 113.033 242.174 113.004C242.007 112.992 241.842 112.957 241.685 112.9Z" fill="#3F3D56"/>
<path d="M177.774 75.9101H56.597C56.4884 75.9101 56.3843 75.8672 56.3075 75.7909C56.2307 75.7146 56.1876 75.611 56.1876 75.5031C56.1876 75.3951 56.2307 75.2916 56.3075 75.2153C56.3843 75.139 56.4884 75.0961 56.597 75.0961H177.774C177.883 75.0961 177.987 75.139 178.063 75.2153C178.14 75.2916 178.183 75.3951 178.183 75.5031C178.183 75.611 178.14 75.7146 178.063 75.7909C177.987 75.8672 177.883 75.9101 177.774 75.9101Z" fill="#3F3D56"/>
</g>
<defs>
<clipPath id="clip0_6_478">
<rect width="339" height="197" fill="white"/>
</clipPath>
</defs>
</svg>
