<svg width="312" height="226" viewBox="0 0 312 226" fill="none" xmlns="http://www.w3.org/2000/svg">
<g clip-path="url(#clip0_5_273)">
<path d="M167.892 217.655C167.824 220.192 167.401 222.708 166.636 225.127C166.619 225.183 166.6 225.239 166.582 225.295H161.896C161.901 225.245 161.906 225.188 161.911 225.127C162.224 221.515 160.439 199.791 158.285 196.031C158.474 196.336 168.255 206.176 167.892 217.655Z" fill="#F1F1F1"/>
<path d="M167.54 225.127C167.501 225.183 167.46 225.24 167.419 225.295H163.903C163.93 225.247 163.961 225.191 163.997 225.127C164.577 224.073 166.296 220.922 167.892 217.655C169.605 214.144 171.179 210.499 171.047 209.181C171.088 209.478 172.274 218.546 167.54 225.127Z" fill="#F1F1F1"/>
<path d="M293.109 220.232C293.065 221.914 292.785 223.581 292.277 225.184C292.266 225.221 292.254 225.258 292.241 225.295H289.136C289.14 225.261 289.143 225.224 289.146 225.184C289.353 222.79 288.171 208.395 286.743 205.903C286.868 206.105 293.35 212.626 293.109 220.232Z" fill="#F1F1F1"/>
<path d="M292.876 225.184C292.85 225.221 292.823 225.258 292.796 225.295H290.466C290.484 225.263 290.504 225.226 290.528 225.184C290.913 224.485 292.052 222.397 293.109 220.232C294.245 217.905 295.288 215.491 295.2 214.617C295.227 214.814 296.013 220.823 292.876 225.184Z" fill="#F1F1F1"/>
<path d="M143.42 220.232C143.375 221.914 143.095 223.581 142.587 225.184C142.576 225.221 142.564 225.258 142.552 225.295H139.447C139.45 225.261 139.453 225.224 139.456 225.184C139.663 222.79 138.481 208.395 137.054 205.903C137.179 206.105 143.66 212.626 143.42 220.232Z" fill="#F1F1F1"/>
<path d="M143.187 225.184C143.161 225.221 143.134 225.258 143.106 225.295H140.776C140.794 225.263 140.815 225.226 140.838 225.184C141.223 224.485 142.362 222.397 143.419 220.232C144.555 217.905 145.598 215.491 145.51 214.617C145.537 214.814 146.323 220.823 143.187 225.184Z" fill="#F1F1F1"/>
<path d="M76.5885 0L41.795 57.6311L142.369 119.049L177.162 61.4184L76.5885 0Z" fill="white"/>
<path d="M76.5885 0L41.795 57.6311L142.369 119.049L177.162 61.4184L76.5885 0ZM141.716 116.362L44.4667 56.9743L77.2414 2.6871L174.491 62.0751L141.716 116.362Z" fill="#E5E5E5"/>
<path d="M65.9459 19.5121L64.9366 21.184L163.571 81.418L164.581 79.7461L65.9459 19.5121Z" fill="#E5E5E5"/>
<path d="M52.1059 42.4365L51.0966 44.1085L149.731 104.342L150.74 102.671L52.1059 42.4365Z" fill="#E5E5E5"/>
<path d="M104.018 16.7505L69.2242 74.3815L70.8865 75.3967L105.68 17.7656L104.018 16.7505Z" fill="#E5E5E5"/>
<path d="M159.707 50.759L124.914 108.39L123.182 107.489L158.045 49.7436L159.707 50.759Z" fill="#E5E5E5"/>
<path d="M125.689 108.864L124.914 108.39L123.182 107.489L123.118 107.294L122.172 104.427L115.17 83.2367L114.224 80.3703L102.185 43.9304L101.238 41.064L97.8355 30.7593L97.0309 28.323L91.4216 11.3465L90.4747 8.48011L93.0461 10.0501L93.9926 12.9165L98.3568 26.1271L99.161 28.5634L103.81 42.6343L104.756 45.5007L116.795 81.9407L117.741 84.8071L124.51 105.291L124.743 105.998L125.314 107.727L125.689 108.864Z" fill="#E5E5E5"/>
<path d="M121.804 89.8714H120.834V63.1674C120.834 61.1377 120.437 59.1279 119.665 57.2528C118.892 55.3776 117.76 53.6738 116.333 52.2386C114.906 50.8034 113.212 49.665 111.348 48.8883C109.483 48.1115 107.485 47.7118 105.467 47.7118H49.2138C47.1958 47.7118 45.1975 48.1115 43.333 48.8883C41.4686 49.665 39.7745 50.8034 38.3475 52.2386C36.9205 53.6738 35.7885 55.3776 35.0162 57.2527C34.244 59.1279 33.8465 61.1377 33.8465 63.1673V209.668C33.8465 211.697 34.2439 213.707 35.0162 215.582C35.7885 217.457 36.9205 219.161 38.3474 220.596C39.7744 222.032 41.4685 223.17 43.333 223.947C45.1974 224.724 47.1957 225.123 49.2138 225.123H105.467C109.543 225.123 113.451 223.495 116.333 220.597C119.215 217.698 120.834 213.767 120.834 209.668V108.88H121.804V89.8714Z" fill="#3F3D56"/>
<path d="M106.087 51.7328H98.7442C99.0819 52.5654 99.2108 53.4688 99.1195 54.3633C99.0283 55.2579 98.7197 56.1161 98.221 56.8625C97.7223 57.6088 97.0487 58.2204 96.2596 58.6432C95.4706 59.0661 94.5902 59.2873 93.6961 59.2874H61.4694C60.5752 59.2873 59.6949 59.0661 58.9058 58.6432C58.1167 58.2204 57.4432 57.6088 56.9444 56.8625C56.4457 56.1161 56.1371 55.2579 56.0459 54.3633C55.9547 53.4688 56.0836 52.5654 56.4213 51.7328H49.563C46.5193 51.7328 43.6003 52.9488 41.4481 55.1134C39.2959 57.2779 38.0868 60.2137 38.0868 63.2748V209.56C38.0868 211.076 38.3836 212.577 38.9604 213.977C39.5371 215.378 40.3824 216.65 41.4481 217.722C42.5137 218.793 43.7789 219.644 45.1712 220.224C46.5636 220.804 48.0559 221.102 49.563 221.102H106.087C107.594 221.102 109.086 220.804 110.479 220.224C111.871 219.644 113.136 218.793 114.202 217.722C115.268 216.65 116.113 215.378 116.69 213.977C117.266 212.577 117.563 211.076 117.563 209.56V63.2748C117.563 61.7591 117.266 60.2582 116.69 58.8579C116.113 57.4575 115.268 56.1851 114.202 55.1134C113.136 54.0416 111.871 53.1914 110.479 52.6114C109.086 52.0313 107.594 51.7328 106.087 51.7328Z" fill="white"/>
<path d="M89.9352 92.7147H65.7148V98.5928H89.9352V92.7147Z" fill="#6C63FF"/>
<path d="M91.0883 117.973H64.5617V123.851H91.0883V117.973Z" fill="#E5E5E5"/>
<path d="M107.427 130.6H48.2227V136.478H107.427V130.6Z" fill="#E5E5E5"/>
<path d="M107.427 143.227H48.2227V149.105H107.427V143.227Z" fill="#E5E5E5"/>
<path d="M89.9352 171.214H65.7148V180.12H89.9352V171.214Z" fill="#6C63FF"/>
<path d="M131.004 48.3217C132.484 48.3217 133.684 47.1149 133.684 45.6262C133.684 44.1375 132.484 42.9306 131.004 42.9306C129.523 42.9306 128.323 44.1375 128.323 45.6262C128.323 47.1149 129.523 48.3217 131.004 48.3217Z" fill="#6C63FF"/>
<path d="M198.267 158.018C198.688 157.796 199.056 157.485 199.345 157.105C199.634 156.725 199.836 156.286 199.938 155.819C200.04 155.352 200.039 154.868 199.935 154.402C199.831 153.935 199.626 153.498 199.335 153.119L203.027 146.633L199.655 143.415L194.57 152.649C193.97 153.182 193.585 153.918 193.489 154.717C193.393 155.516 193.591 156.323 194.047 156.985C194.503 157.647 195.184 158.117 195.962 158.308C196.74 158.498 197.56 158.395 198.267 158.018Z" fill="#FFB7B7"/>
<path d="M219.021 220.901H214.336L212.107 202.728L219.022 202.729L219.021 220.901Z" fill="#FFB7B7"/>
<path d="M220.215 225.468L205.11 225.468V225.276C205.111 223.707 205.73 222.203 206.833 221.095C207.935 219.986 209.43 219.363 210.99 219.363H210.99L220.216 219.363L220.215 225.468Z" fill="#2F2E41"/>
<path d="M258.58 214.845L254.449 217.066L243.963 202.097L250.061 198.819L258.58 214.845Z" fill="#FFB7B7"/>
<path d="M261.775 218.306L248.454 225.468L248.364 225.299C247.629 223.916 247.47 222.296 247.922 220.795C248.375 219.294 249.401 218.036 250.776 217.296L250.777 217.296L258.912 212.921L261.775 218.306Z" fill="#2F2E41"/>
<path d="M236.483 149.289L237.532 171.065C237.532 171.065 239.952 171.979 239.105 175.511C239.105 175.511 237.917 179.579 240.603 179.579C243.289 179.579 253.801 204.721 253.801 204.721L246.932 208.222L228.887 181.875L223.758 164.28L221.01 184.27L220.827 215.131L211.851 214.118L209.286 178.467L208.095 151.291L236.483 149.289Z" fill="#2F2E41"/>
<path d="M205.241 156.296L207.453 140.155L215.116 102.421L229.68 103.25L236.633 116.738L235.425 143.046L238.206 153.433L205.241 156.296Z" fill="#3F3D56"/>
<path d="M210.857 133.358L202.11 150.104L200.74 153.39L196.735 148.62L202.225 129.112C202.225 129.112 207.192 104.924 215.088 102.462L216.998 102.775L210.857 133.358Z" fill="#3F3D56"/>
<path d="M231.707 153.217C232.157 153.063 232.568 152.811 232.911 152.479C233.253 152.148 233.52 151.745 233.691 151.299C233.862 150.853 233.934 150.374 233.901 149.897C233.869 149.42 233.732 148.956 233.502 148.538L238.129 142.69L235.281 138.995L228.862 147.346C228.189 147.782 227.698 148.451 227.483 149.226C227.267 150.001 227.341 150.829 227.692 151.553C228.043 152.276 228.645 152.845 229.385 153.152C230.125 153.459 230.952 153.482 231.707 153.217Z" fill="#FFB7B7"/>
<path d="M226.965 105.641L229.547 103.151C229.547 103.151 232.58 104.286 234.763 110.146C236.947 116.006 244.053 131.874 244.053 131.874L237.098 146.076L232.408 142.95L234.937 130.443L226.965 105.641Z" fill="#3F3D56"/>
<path d="M221.017 100.779C225.279 100.779 228.734 97.3039 228.734 93.0175C228.734 88.7311 225.279 85.2563 221.017 85.2563C216.755 85.2563 213.3 88.7311 213.3 93.0175C213.3 97.3039 216.755 100.779 221.017 100.779Z" fill="#FFB7B7"/>
<path d="M228.275 86.8128L228.649 86.0555L226.766 85.1149C226.766 85.1149 224.69 81.7166 220.932 82.6716C217.174 83.6266 215.483 84.1981 215.483 84.1981L213.606 85.1483L214.548 86.0913L212.858 86.6629L213.987 87.2273L212.673 87.987L213.38 91.8814C213.38 91.8814 214.555 88.9276 216.814 90.0564C219.073 91.1852 223.205 89.4729 223.205 89.4729L226.795 96.46C226.795 96.46 227.535 94.0106 228.856 94.6638C228.856 94.6638 232.229 89.2609 228.275 86.8128Z" fill="#2F2E41"/>
<path d="M311.649 226H0.350562C0.257587 226 0.16842 225.963 0.102677 225.897C0.0369338 225.831 0 225.741 0 225.647C0 225.554 0.0369338 225.464 0.102677 225.398C0.16842 225.332 0.257587 225.295 0.350562 225.295H311.649C311.742 225.295 311.832 225.332 311.897 225.398C311.963 225.464 312 225.554 312 225.647C312 225.741 311.963 225.831 311.897 225.897C311.832 225.963 311.742 226 311.649 226Z" fill="#CBCBCB"/>
</g>
<defs>
<clipPath id="clip0_5_273">
<rect width="312" height="226" fill="white"/>
</clipPath>
</defs>
</svg>
